PathFileType	4	(X/Y/Z)	Patient4_TMGait_0pt3_01_right_15.trc.trc
DataRate	CameraRate	NumFrames	NumMarkers	Units	OrigDataRate	OrigDataStartFrame	OrigNumFrames
54.263565891473	54.263565891473	5	33	mm	54.263565891473	18	       141
Frame#	Time	Sacral			L.Shoulder			Chest			R.Shoulder			Neck			R.ASIS			L.ASIS			R.Thigh.Superior			R.Thigh.Lateral			R.Thigh.Inferior			R.Patella			L.Thigh.Superior			L.Thigh.Lateral			L.Thigh.Inferior			L.Patella			L.Shank.Superior			L.Shank.Lateral			L.Shank.Inferior			R.Shank.Superior			R.Shank.Lateral			R.Shank.Inferior			R.Heel			R.Midfoot.Superior			R.Midfoot.Lateral			R.Toe			L.Heel			L.Midfoot.Lateral			L.Midfoot.Superior			L.Toe			L.Elbow			L.Wrist			R.Elbow			R.Wrist			
		X1	Y1	Z1	X2	Y2	Z2	X3	Y3	Z3	X4	Y4	Z4	X5	Y5	Z5	X6	Y6	Z6	X7	Y7	Z7	X8	Y8	Z8	X9	Y9	Z9	X10	Y10	Z10	X11	Y11	Z11	X12	Y12	Z12	X13	Y13	Z13	X14	Y14	Z14	X15	Y15	Z15	X16	Y16	Z16	X17	Y17	Z17	X18	Y18	Z18	X19	Y19	Z19	X20	Y20	Z20	X21	Y21	Z21	X22	Y22	Z22	X23	Y23	Z23	X24	Y24	Z24	X25	Y25	Z25	X26	Y26	Z26	X27	Y27	Z27	X28	Y28	Z28	X29	Y29	Z29	X30	Y30	Z30	X31	Y31	Z31	X32	Y32	Z32	X33	Y33	Z33	

18	27.233285714286	730.603083871614	994.191343359523	416.314894448983	944.493939464256	1432.944200978770	280.797075724167	1000.775464633868	1361.723432363398	461.905643201175	873.753135017713	1431.358253409632	608.612953105298	890.694757391577	1491.816119755043	432.399666861200	937.508596850342	944.442034006162	578.244300204063	972.320186238802	957.586729449099	304.432746779228	1021.559413694844	771.257075710546	559.156657892321	974.249657373553	651.353193161052	630.157541935013	1069.070276176741	613.287037561908	558.418379251600	1101.312024241792	526.561691687161	583.801903285741	992.165240389224	732.394911051576	347.175112693066	897.915068901369	619.670631434624	280.489077479604	959.359531510650	538.351985043603	359.765985767403	949.442962175342	467.903639107578	371.811313940146	909.764462168575	398.405380881140	363.620132772685	809.985961665921	296.527961803673	306.057350641453	829.147235488801	183.557422556703	387.535291014878	1073.856998847818	437.174594722522	594.806824890519	1001.675455993025	332.430658700234	656.378723676140	1065.188624926751	236.992809338541	614.127780952413	954.558457372684	59.268413662565	582.038542096934	1119.355046750510	119.511721703454	636.732569280106	1032.907452492113	48.746806299529	660.773556591888	1238.400280698203	73.289038823057	670.655865026672	677.663742921816	39.721893418323	420.394199380423	756.904843845153	36.217587212503	345.757287929333	839.834015467051	94.767324388458	378.441693714128	968.688910108844	39.831322360995	357.674814408238	1086.496046192653	1134.671592081027	135.776415017330	1338.319468341779	1103.335370839261	191.308845470991	701.799577012526	1125.521659666599	688.096923221906	672.653069915366	866.400212664158	705.607573148740	
19	27.251714285714	731.043465408659	993.048635208599	418.581693981876	944.754014642345	1431.897095055771	283.960434271128	1000.268158367721	1361.014115596528	465.382676085938	872.555504090558	1430.780545440885	611.453657305585	890.379407897958	1490.934115188448	435.232372922593	937.210722730700	943.083125744089	581.227319770776	973.128302173902	956.922676646918	307.490859512631	1020.327455739411	768.681126580732	562.943433929322	970.839562745187	648.408143055724	632.256318709611	1066.335696912401	610.474023517460	561.424715315387	1097.429524446174	524.318842915462	585.505362915307	990.824035830734	731.263896412315	348.982657815864	895.029468509082	619.795429886198	281.411529861936	955.450889846640	537.457877020041	360.104075351906	944.598515725067	467.276771824944	371.983249160528	905.149171286452	398.066661591554	363.689951598443	804.812340696396	296.553592390203	306.143104365015	823.855888384665	183.411299305679	387.557939366511	1071.555664824409	434.810597783374	595.933321725318	1001.046981912587	328.715208491695	657.075984206967	1065.988351992383	234.487944206714	614.227091466971	957.709829663126	56.179030861759	581.575313331491	1122.017145195544	117.049377195535	635.686340986525	1036.413135061427	45.771236181683	659.941157230536	1241.660117959782	71.700160467145	668.941170251145	672.106100117683	39.680221379969	420.411959256318	751.325016022077	36.168026628112	345.761314298616	834.288293725707	94.715142687150	378.418752915203	963.100888767008	39.777970671187	357.683053231285	1090.172934213119	1135.702101742282	139.443373771184	1342.499196300662	1114.865463293092	196.497109977465	697.532660272485	1126.990307768190	688.836086928935	666.639640912213	867.895602232814	705.656222394410	
20	27.270142857143	731.685885113747	991.596811733874	421.147281383062	944.778783168589	1430.605698203662	287.364615173546	999.799280983338	1360.083754702688	469.026163332470	871.495363765705	1429.821675066562	614.632850429941	889.994871005983	1489.764945184941	438.390033143868	937.249120937921	941.396815925541	584.300642606580	974.131168933099	956.025648643915	310.666135978410	1019.567377549138	765.764478181139	566.647442251629	967.875747302187	645.138317421836	634.151126533615	1064.027132945774	607.377138498917	564.168589516550	1093.801796754794	521.453117672899	586.941257183816	989.913881143499	729.962263025584	350.926392710583	892.616959459967	619.718373258599	282.598315575627	952.067224848793	536.410518432350	360.732933267553	940.318165795278	466.457751331212	372.456129193570	900.957131045014	397.522166161094	364.012819046303	799.939872287314	296.550925975408	306.416573826161	818.720598194238	183.179733378773	387.708078745376	1068.951957169118	431.821848662618	596.829368391260	999.331362886423	324.930994370558	657.345802811187	1065.010753244372	231.541955752540	613.922791240538	957.918960739959	53.384012137774	580.494772574329	1121.865523758426	114.330691973630	634.303152439703	1036.634609240703	43.179959544030	658.831538676448	1241.697346442182	69.416350811044	667.533331180778	666.556877865041	39.633631371704	420.433409931446	745.752122879112	36.127758071823	345.771584768644	828.756055152257	94.671924049754	378.423652509925	957.512057234119	39.719263161607	357.684311412033	1093.359171568079	1136.210426660520	143.476410236558	1345.876726614534	1125.300369696627	201.670089421030	694.889932215490	1127.153645065601	690.097667086442	663.615299727240	867.872398396227	706.308740799401	
21	27.288571428571	732.521760930364	990.003540064551	423.952313093175	944.675576541763	1429.210421215841	291.047670557848	999.420877262223	1359.028708665735	472.880963647390	870.591781269438	1428.588500110041	618.165531041848	889.593376658400	1488.425373982715	441.905762403482	937.596496994408	939.526064373725	587.474926778757	975.332761908242	954.996752311702	313.974598521469	1019.265703234568	762.696720661537	570.180426003335	965.460075107259	641.763234207740	635.856167847468	1062.175742631485	604.186146997845	566.594530773627	1090.543791288930	518.209968523513	588.098380298080	989.361339562254	728.530121248371	353.036282618665	890.593783301032	619.499911102865	284.062325629254	949.082599994263	535.261530140414	361.690774523007	936.476603528300	465.501510793561	373.256215965260	897.065023737906	396.838642102848	364.609142197636	795.302503019719	296.558428561387	306.878421211533	813.705277198807	182.907255712140	387.988749449162	1066.235303000384	428.431951476082	597.506390486434	996.857406782266	321.191088250426	657.316502509608	1062.654172722919	228.292164864269	613.291419307466	955.693397751261	50.832588711935	579.027696394474	1119.449748004542	111.517976153134	632.674236641263	1034.188584878692	40.981118259551	657.597259212238	1239.165957062665	66.697683626556	666.371626039298	661.014050525062	39.600044832717	420.449897501871	740.188726425047	36.106367234652	345.785447713034	823.240150381853	94.651366199054	378.451968782933	951.923813921928	39.653873034719	357.678196855033	1096.032836867970	1136.303894465054	147.817458536112	1348.483459723248	1134.599193247715	206.816029086496	693.774641182349	1126.132692942010	691.923063324551	663.460473895571	866.490417612022	707.693674301219	
22	27.307000000000	733.526622110005	988.436291206576	426.942018746636	944.561031454450	1427.849001094237	295.038924369079	999.184260424223	1357.942320736238	476.984311890185	869.867988573516	1427.199285273340	622.053541203838	889.235571012072	1487.036314603380	445.798479493469	938.213676734815	937.621775086616	590.766741580154	976.712820075239	953.935605240489	317.428652228244	1019.399462677763	759.687190671746	573.478748862624	963.686081281766	638.511289226190	637.417761228760	1060.807931167622	601.100433898500	568.684357506107	1087.763838843275	514.853375474167	589.001048169465	989.075700516705	727.019217419218	355.338016125842	888.870495727342	619.203349502091	285.808704916560	946.381737317453	534.068569549012	362.999013567762	932.963266818937	464.463578344917	374.390084180891	893.365804835223	396.086805731413	365.484968339199	790.837430396788	296.620000011381	307.522248274763	808.777015351762	182.641460257884	388.392739412049	1063.600833123046	424.892148696678	598.006621336478	993.978645592703	317.641902739666	657.139581240955	1059.350992541341	224.929218645491	612.441479418568	951.614397142592	48.540117037407	577.414180445458	1115.374286300736	108.800055474264	630.919611406179	1029.767832867934	39.196571574693	656.382037145488	1234.770069614300	63.824948404485	665.384216261698	655.475110974205	39.608686346334	420.453216000826	734.637856946377	36.117834805944	345.799920756144	817.745496921739	94.667459503348	378.497011669145	946.339569955303	39.578445560517	357.663768730294	1098.198122836833	1136.102685846889	152.397157729361	1350.378605959691	1142.740664676286	211.928835378486	694.062515821775	1124.104820670374	694.334320721864	666.020629877946	863.985567103622	709.918099057297	
